<svg id="Layer_1" data-name="Layer 1" xmlns="http://www.w3.org/2000/svg" viewBox="0 0 183.35 209.58"><defs><style>.cls-1{fill:#ed485f;}</style></defs><g id="Page-1"><g id="Heap-RGB_Logo-Horizontal-Lockup-Color" data-name="Heap-RGB Logo-Horizontal-Lockup-Color"><path id="Shape" class="cls-1" d="M179.89,49.86,95.14.93a6.92,6.92,0,0,0-6.93,0L3.46,49.86a6.94,6.94,0,0,0-3.46,6v97.86a6.94,6.94,0,0,0,3.46,6l84.75,48.93a6.92,6.92,0,0,0,6.93,0l84.75-48.93a6.94,6.94,0,0,0,3.46-6V55.86a6.94,6.94,0,0,0-3.46-6ZM162,145.38,91.67,186l-70.35-40.6V64.21L91.63,23.62V98.81a3.47,3.47,0,0,0,5.2,3L162,64.21Z"/></g></g></svg>